<?xml version="1.0" encoding="UTF-8"?>
<svg xmlns="http://www.w3.org/2000/svg" version="1.1" viewBox="0 0 1000 354">
  <defs>
    <style>
      .cls-1 {
        fill: #f28729;
      }

      .cls-2 {
        fill: #053c5c;
      }

      .cls-3 {
        fill: #0588a6;
      }

      .cls-4 {
        fill: #bbe2ee;
      }
    </style>
  </defs>
  <!-- Generator: Adobe Illustrator 28.7.3, SVG Export Plug-In . SVG Version: 1.2.0 Build 164)  -->
  <g>
    <g id="Laag_1">
      <g id="kleur_klein">
        <circle class="cls-2" cx="147.4" cy="122.5" r="31"/>
        <circle class="cls-4" cx="234.3" cy="198.4" r="25"/>
        <circle class="cls-3" cx="210.8" cy="251" r="26.3"/>
        <circle class="cls-4" cx="114.3" cy="169.2" r="22.5"/>
        <circle class="cls-3" cx="159.2" cy="184.9" r="22.5"/>
        <circle class="cls-3" cx="205.9" cy="155.8" r="22.5"/>
        <circle class="cls-1" cx="200.7" cy="108.9" r="16.8"/>
        <circle class="cls-4" cx="167.1" cy="227.8" r="16.8"/>
        <circle class="cls-1" cx="133.6" cy="218.6" r="15.4"/>
        <circle class="cls-1" cx="192.6" cy="206.1" r="12.4"/>
        <g>
          <path class="cls-2" d="M286.3,139.6c0-.7.2-1.2.9-1.2,5.5-.2,16.8-.5,28.2-.5,30.3,0,43.6,17.1,43.6,36.3s-20.5,38.1-45.3,38.1-9.4-.2-13.2-.2v38c0,.9-.2,1.2-1,1.2h-12.1c-.7,0-1-.3-1-1v-110.6ZM300.5,199.3c2.9.2,5.8.2,13,.2,16.8,0,31.3-6.3,31.3-25s-12-23.9-29.2-23.9-12.3.2-15,.3v48.4Z"/>
          <path class="cls-2" d="M379.3,251.3c-1,0-1.4-.5-1.4-1.4v-110.5c0-.7.2-1.2,1-1.2h12.3c.7,0,.9.3.9,1v99h53c.9,0,1,.5.9,1l-2.1,10.9c-.2.9-.7,1-1.4,1h-63.3Z"/>
          <path class="cls-2" d="M469.9,209.6c0,18.8,10.3,30.6,28.9,30.6s28-6.3,28-31v-69.8c0-.9.3-1.2,1-1.2h12.1c.9,0,1.2.3,1.2,1.2v69.9c0,31.5-18.6,43.6-42.9,43.6s-42.6-14-42.6-42.6v-71c0-.7.2-1.2,1-1.2h12.1c.7,0,1,.3,1,1v70.3Z"/>
          <path class="cls-2" d="M614.6,203.3c-.9-.2-1.2-.3-1.2-1.2v-10.4c0-.7.5-.9,1-.9h37.1c1,0,1.2.3,1.2,1v54.2c.2.7-.2,1-.9,1.4-11.1,4.4-22.4,5.6-31.8,5.6-38.8,0-59.3-25.1-59.3-57.6s25.1-58.8,61.6-58.8,21,1.4,27.2,4.3c.7.3.9.9.9,1.7v11.3c0,.9-.5,1-1,.7-7.7-3.9-17.1-5-26.7-5-29.1-.3-47.2,16.9-47.2,45.3s15.6,45.5,45.3,45.5,13.2-.9,17.6-2.7v-34l-23.8-.3Z"/>
          <path class="cls-2" d="M691.9,250.1c0,.9-.2,1.2-1,1.2h-12c-.9,0-1.2-.3-1.2-1.2v-110.6c0-.9.3-1.2,1-1.2h12.1c.7,0,1,.3,1,1v110.8Z"/>
          <path class="cls-2" d="M721.3,251.3c-.7,0-1.2-.2-1.2-1.2v-110.8c0-.7.2-1,1-1h16.9c.9,0,1,.3,1.5,1,14.9,25.1,47.7,80.7,54.6,94.1h.2c-.3-4.6-.5-11.1-.5-26v-67.9c0-.9.3-1.2,1.2-1.2h11.3c.9,0,1.2.5,1.2,1.4v110.5c0,.9-.3,1.2-1.5,1.2h-15.2c-1,0-1.5-.2-1.9-1-7.7-14.4-50.3-85-55.7-97.6h-.2c.3,6.7.7,15,.7,30.1v67.4c0,.9-.3,1.2-1,1.2h-11.3Z"/>
        </g>
      </g>
    </g>
  </g>
</svg>